# xmcd
#
# Track frame offsets: 
#        182
#        18195
#        38480
#        60035
#        75697
#        92747
#        119307
#        135705
#        152355
#        167185
#        181505
#        197057
#
# Disc length: 2860 seconds
#
# Revision: 1
# Processed by: cddbd v1.5.2PL0 Copyright (c) Steve Scherf et al.
# Submitted via: ExactAudioCopy v0.99pb3
#
DISCID=800b2a0c
DTITLE=Gilberto Gil - Parabolicamará
DYEAR=1991
DGENRE=MPB
TTITLE0=Madalena (Entra Em Beco, Sai Em Beco)
TTITLE1=Parabolicamará
TTITLE2=Um Sonho
TTITLE3=Buda Nagô
TTITLE4=Serafim
TTITLE5=Queiro Ser Teu Funk
TTITLE6=Neve Na Bahia
TTITLE7=Yá Olokun
TTITLE8=O Fim Da História
TTITLE9=De Onde Vem O Baião
TTITLE10=Falso Toureiro
TTITLE11=Sina
EXTD=
EXTT0=
EXTT1=
EXTT2=
EXTT3=
EXTT4=
EXTT5=
EXTT6=
EXTT7=
EXTT8=
EXTT9=
EXTT10=
EXTT11=
PLAYORDER=
